PathFileType	4	(X/Y/Z)	s01c0401.trc
DataRate	CameraRate	NumFrames	NumMarkers	Units	OrigDataRate	OrigDataStartFrame	OrigNumFrames
200	200	6	48	mm	200	750	2000
Frame#	Time	racr			lacr			c7			jug			rlel			rdr			llel			ldr			s2			lic			ric			lasi			rasi			rpsi			lpsi			rgt			lgt			rth1			rth2			rth3			rth4			rlfc			rsh1			rsh2			rsh3			rsh4			rlmal			rmmal			rcal			rtoe			rmt5			lth1			lth2			lth4			lth3			llfc			lsh1			lsh2			lsh3			lsh4			llmal			lmmal			lcal			ltoe			lmt5			SBIKE			LBIKE			RBIKE			
		X1	Y1	Z1	X2	Y2	Z2	X3	Y3	Z3	X4	Y4	Z4	X5	Y5	Z5	X6	Y6	Z6	X7	Y7	Z7	X8	Y8	Z8	X9	Y9	Z9	X10	Y10	Z10	X11	Y11	Z11	X12	Y12	Z12	X13	Y13	Z13	X14	Y14	Z14	X15	Y15	Z15	X16	Y16	Z16	X17	Y17	Z17	X18	Y18	Z18	X19	Y19	Z19	X20	Y20	Z20	X21	Y21	Z21	X22	Y22	Z22	X23	Y23	Z23	X24	Y24	Z24	X25	Y25	Z25	X26	Y26	Z26	X27	Y27	Z27	X28	Y28	Z28	X29	Y29	Z29	X30	Y30	Z30	X31	Y31	Z31	X32	Y32	Z32	X33	Y33	Z33	X34	Y34	Z34	X35	Y35	Z35	X36	Y36	Z36	X37	Y37	Z37	X38	Y38	Z38	X39	Y39	Z39	X40	Y40	Z40	X41	Y41	Z41	X42	Y42	Z42	X43	Y43	Z43	X44	Y44	Z44	X45	Y45	Z45	X46	Y46	Z46	X47	Y47	Z47	X48	Y48	Z48	
750	3.7500	720.808437	1285.890051	-43.380419	743.175411	1251.086876	-426.107304	730.666678	1379.602533	-234.402459	719.201727	1210.222176	-225.743179	543.652293	1053.349216	41.247707	697.380090	891.215221	-59.071100	555.608532	1062.674022	-565.644705	688.893124	888.820011	-463.551159	189.837146	1211.336607	-239.592572	360.191326	1201.779592	-414.225460	343.177891	1189.391621	-79.490402	352.369956	1145.328586	-385.963241	369.826109	1141.551230	-113.266229	226.681936	1244.560636	-187.533329	222.189176	1253.467632	-292.217998	283.837951	1079.261727	-59.700584	292.062321	1076.003521	-436.117061	350.402895	958.718227	-49.474777	395.486867	889.695946	-57.626756	438.960914	811.717836	-72.865745	443.192074	917.390922	-70.316008	472.923901	702.853541	-99.383408	416.630906	596.055802	-67.126520	387.140900	516.666005	-74.043347	347.935607	437.775143	-86.335071	429.435191	501.965471	-114.521666	280.775351	331.829810	-106.856738	320.276629	338.157852	-187.080008	230.080570	316.166298	-160.991377	483.467350	220.393875	-138.508481	373.488550	221.028502	-72.136000	352.309026	968.408208	-455.939588	416.653057	909.515278	-448.996779	452.750443	947.082084	-434.207791	471.711079	844.848131	-438.735547	504.906380	744.227934	-423.152353	395.599309	707.859202	-455.966324	319.835030	666.644729	-448.279154	243.277127	629.519920	-433.951337	348.164441	620.731998	-417.383458	131.452836	576.678664	-417.505313	156.898020	556.152726	-338.402294	79.573802	594.581125	-372.172383	203.294009	345.888686	-378.730171	130.818660	424.931622	-443.499291	-275.649436	875.779634	-266.806695	-21.372364	80.646965	-453.793637	-21.338868	80.355208	-53.834911	
751	3.7550	721.058240	1286.373048	-44.916210	742.259165	1251.688023	-427.644696	729.700475	1380.395716	-235.910308	719.134849	1210.924769	-227.362045	544.449637	1053.801918	41.391776	697.396708	891.078589	-59.075095	555.014681	1062.260030	-566.252309	688.645565	888.702228	-463.706812	189.699167	1209.362579	-238.310122	359.063449	1201.485256	-413.831517	343.966719	1187.499945	-78.650693	352.165914	1144.939387	-385.365779	370.388306	1139.525960	-112.623641	226.961485	1242.349360	-186.271993	221.707999	1251.957650	-290.683063	283.438815	1076.632581	-59.700025	292.713867	1076.610241	-436.154659	348.344520	954.987531	-49.459127	392.085342	885.170820	-57.610747	434.076601	806.381924	-72.890199	439.977357	911.828338	-69.771509	465.972899	696.505539	-99.155371	410.266754	589.574352	-66.887700	381.496469	509.902408	-73.918640	342.919431	430.713619	-86.191445	423.702688	495.559322	-114.305214	276.271147	324.736971	-107.123912	315.226869	330.846799	-187.215358	225.816549	310.357114	-160.927587	477.601970	210.203749	-138.718877	367.689168	212.819272	-72.228465	355.695525	971.323213	-456.832438	421.522819	914.184767	-450.303619	456.685384	952.485267	-434.934420	478.325986	850.772912	-440.372715	513.303156	750.538086	-424.967850	403.760727	714.391309	-457.333793	327.867568	673.733272	-449.409685	251.161274	637.000805	-434.704781	355.980962	627.461545	-418.827059	141.172165	583.549977	-416.714826	164.998669	564.108235	-338.518219	87.569962	602.944417	-372.506324	209.585037	353.466031	-378.926903	137.687822	432.940601	-443.666094	-275.650236	875.761124	-266.870036	-21.372059	80.612116	-453.813937	-21.324065	80.320707	-53.852165	
752	3.7600	721.263393	1286.990024	-46.348594	741.365699	1252.148985	-429.283295	728.765301	1381.219785	-237.541010	719.166307	1211.931711	-229.128131	545.326723	1054.242577	41.513257	697.464245	890.913032	-59.037385	554.185586	1061.772961	-567.169642	688.373413	888.656569	-463.871450	189.738091	1207.399529	-236.878207	357.767496	1201.315232	-413.460070	344.869809	1185.485423	-77.925342	351.792564	1144.671702	-384.748608	371.055275	1137.433755	-112.122255	227.292864	1240.101416	-184.892678	221.233762	1250.492233	-288.996623	283.275794	1073.908969	-59.738806	293.135631	1077.375171	-436.177756	346.290571	951.397187	-49.337379	388.665221	880.661258	-57.629034	429.100770	801.175261	-72.951556	437.054817	906.478457	-69.925056	458.761031	690.465642	-99.255736	403.711357	583.262466	-66.661581	375.463557	503.438008	-73.756151	337.478178	423.976176	-85.957319	417.820226	489.414678	-114.126383	271.298266	318.101532	-107.640482	310.347613	323.929219	-186.867509	221.135979	304.770389	-160.858581	471.210415	200.267212	-138.922211	361.429484	204.914013	-72.377329	358.695846	974.354050	-457.671994	425.945042	918.899109	-451.727483	460.179342	957.891354	-435.848592	484.403260	856.771921	-442.042969	521.453696	757.036912	-427.007362	411.947778	721.019781	-458.661262	336.047146	680.731584	-450.494754	258.795139	644.369123	-435.692899	363.875533	634.261266	-420.094762	152.890723	589.080325	-414.689071	173.321936	571.746964	-338.641709	95.756237	610.937440	-372.850372	216.481053	360.701830	-378.982752	144.968741	440.620923	-443.776244	-275.600675	875.713010	-266.919996	-21.366714	80.584070	-453.824267	-21.338666	80.329143	-53.875400	
753	3.7650	721.487692	1287.732028	-47.983113	740.465833	1252.534113	-431.020689	727.907675	1382.122980	-239.333188	719.140775	1212.987510	-230.822758	546.398734	1054.760773	41.637243	697.588905	890.733651	-58.920893	553.358152	1061.316406	-568.018966	688.133335	888.668079	-464.038394	189.899041	1205.594364	-235.249439	356.321100	1201.288634	-413.102897	345.942536	1183.348704	-77.255193	351.396426	1144.667066	-384.324309	371.825940	1135.321751	-111.746664	227.603334	1238.108611	-183.197468	220.799380	1249.021667	-287.203150	283.283828	1071.325077	-59.824202	293.405307	1078.136415	-436.285696	344.281526	947.806042	-49.271240	385.190647	876.295907	-57.730964	423.886692	796.058677	-72.473576	434.178428	901.187429	-70.439256	451.278061	684.626650	-99.331324	397.056915	577.225276	-66.540723	369.234858	497.215854	-73.549397	331.729528	417.530894	-85.731742	411.505711	483.429944	-113.872552	266.200072	311.805304	-107.728740	305.225896	317.499594	-186.405806	216.143188	299.618293	-160.690602	464.407674	190.552694	-139.188334	354.767796	197.419631	-72.371902	361.337790	977.399327	-458.487020	429.909656	923.504789	-453.092062	463.307678	963.310463	-437.047446	489.840709	862.808346	-443.801918	529.328459	763.524231	-429.118883	420.132759	727.731332	-459.967177	344.190277	687.709781	-451.556206	266.569808	651.750320	-436.797121	372.021270	641.109358	-421.242745	164.570005	594.381554	-412.635212	181.631227	579.117697	-338.736905	104.156005	618.464045	-373.008363	224.043252	367.847527	-379.105205	152.664770	447.939238	-443.842760	-275.650139	875.699078	-266.955963	-21.360337	80.573329	-453.826685	-21.312471	80.267109	-53.852298	
754	3.7700	721.711546	1288.774651	-49.635810	739.536722	1252.880499	-432.913724	727.103017	1383.057094	-241.326454	719.148338	1213.900070	-232.618626	547.487165	1055.457333	41.694872	697.742795	890.568602	-58.696339	552.473283	1060.822284	-568.946922	687.929459	888.743734	-464.205808	190.107558	1203.842405	-233.499331	354.754948	1201.459852	-412.752603	347.045127	1181.196714	-76.791560	350.894820	1144.862322	-384.002322	372.685151	1133.216220	-111.521071	227.928079	1236.149599	-181.299404	220.401053	1247.608075	-285.304033	283.588559	1068.478156	-59.837496	293.371458	1079.191810	-436.356807	342.175954	944.400088	-49.155931	381.601227	872.033935	-57.793538	418.614501	790.998139	-72.616243	430.799776	895.975350	-70.792881	443.782295	679.026194	-99.296183	390.111169	571.523421	-66.329944	362.728070	491.466378	-73.312839	325.746449	411.447935	-85.462947	405.081291	477.865393	-113.791131	260.614685	305.781733	-107.859848	300.691685	311.856380	-185.745282	210.723873	294.717421	-160.429926	457.102692	181.437742	-139.594387	347.853180	190.415294	-72.356881	363.633369	980.383779	-459.271690	433.500302	928.103656	-454.618260	466.026906	968.628095	-438.469317	494.937621	868.799184	-445.580709	537.033202	770.122448	-431.237662	428.240139	734.616909	-461.257587	352.333724	694.639742	-452.640281	274.594327	658.792670	-437.646058	380.182171	647.942284	-422.257115	172.863703	601.223762	-412.917311	190.298413	586.163458	-338.813832	112.434877	625.475161	-373.110036	232.060203	374.678890	-379.125321	160.858336	454.916670	-443.929936	-275.652489	875.715357	-266.882615	-21.354302	80.571345	-453.823343	-21.283958	80.249735	-53.848179	
755	3.7750	721.914344	1289.796956	-51.458637	738.553597	1253.202910	-434.935309	726.358405	1383.981238	-243.438386	719.184125	1215.097989	-234.501343	548.752706	1056.225197	41.658561	697.931318	890.518877	-58.386555	551.516947	1060.244460	-569.952622	687.765880	888.886932	-464.444045	190.866161	1201.704629	-230.854980	353.121267	1201.777888	-412.446815	348.279257	1178.989359	-76.472172	350.378827	1145.222731	-383.708708	373.623560	1131.157182	-111.447753	228.101794	1234.335468	-179.143343	219.982362	1246.249613	-283.368936	284.145528	1065.569180	-59.828353	293.042863	1080.234558	-436.873978	340.024362	941.239308	-49.143855	377.841913	868.085268	-57.759096	413.123873	786.249263	-72.763868	427.538667	890.871047	-70.915241	436.157508	673.673637	-99.332355	383.042251	566.185713	-66.131755	355.993431	486.000998	-73.181534	319.377291	405.818278	-85.164127	398.546403	472.684463	-113.756040	254.570570	300.323716	-107.922519	295.820205	306.595761	-185.071537	204.728999	290.421768	-160.026311	449.301141	172.949553	-139.907108	340.459170	183.864377	-72.259252	365.634465	983.232959	-460.044702	436.695776	932.544061	-456.111820	468.411961	973.900321	-439.945473	499.581443	874.672010	-447.479288	544.548051	776.970857	-433.245937	436.173463	741.553707	-462.574114	360.251394	701.608948	-453.642360	282.598150	665.661169	-438.353878	388.232368	654.824217	-423.039554	181.174941	607.699215	-413.062158	198.948801	592.909179	-338.787181	120.658426	631.957898	-373.074706	240.581460	381.408184	-379.212601	169.369858	461.495811	-443.976846	-275.661256	875.734331	-266.849299	-21.346595	80.580002	-453.812408	-21.291640	80.245069	-53.834215	
